# xmcd CD database file
#
# Track frame offsets:
#	150
#	30296
#	61489
#	80408
#	101068
#	123460
#	139185
#	155871
#	178112
#	203266
#	221986
#	249762
#	269972
#	291883
#
# Disc length: 4318 seconds
#
# Revision: 0
# Processed by: cddbd v1.5.1PL0 Copyright (c) Steve Scherf et al.
# Submitted via: CDex 1.51
#
DISCID=d410dc0e
DTITLE=Various Artist - Salsa Rumbera Vol. 2
DYEAR=1900
DGENRE=Salsa
TTITLE0=Ahora Me Da Pena
TTITLE1=Quién Dijo Miedo
TTITLE2=El Hombre Increíble
TTITLE3=Moliendo Café
TTITLE4=Todo Tiene Su Final
TTITLE5=Regreso
TTITLE6=Llorarás
TTITLE7=Y No Hago Más Na
TTITLE8=El Nazareno
TTITLE9=Barranquillero
TTITLE10=Bomba Cara Bomba
TTITLE11=La Guerra De Los Callao
TTITLE12=Amparo Arrebato
TTITLE13=Vámonos Pa'l Monte
EXTD=
EXTT0=
EXTT1=
EXTT2=
EXTT3=
EXTT4=
EXTT5=
EXTT6=
EXTT7=
EXTT8=
EXTT9=
EXTT10=
EXTT11=
EXTT12=
EXTT13=
PLAYORDER=
